<svg width="700" height="700" viewBox="0 0 700 700" fill="none" xmlns="http://www.w3.org/2000/svg">
<path d="M350 145.833C350.034 134.167 347.736 122.613 343.239 111.848C338.742 101.084 332.139 91.3273 323.816 83.1525C315.494 74.9777 305.621 68.5495 294.778 64.2462C283.934 59.9429 272.34 57.8513 260.677 58.0944C249.014 58.3375 237.517 60.9105 226.862 65.6619C216.208 70.4132 206.611 77.2472 198.637 85.7617C190.662 94.2763 184.471 104.299 180.426 115.242C176.382 126.184 174.567 137.825 175.088 149.479C157.943 153.887 142.027 162.139 128.544 173.609C115.061 185.079 104.365 199.467 97.2663 215.683C90.1672 231.899 86.8513 249.518 87.5697 267.205C88.288 284.892 93.0218 302.184 101.413 317.771C86.6594 329.756 75.0583 345.165 67.6182 362.656C60.1782 380.148 57.1246 399.192 58.7231 418.133C60.3216 437.074 66.5238 455.337 76.7902 471.334C87.0565 487.331 101.076 500.577 117.629 509.921C115.585 525.736 116.805 541.802 121.213 557.128C125.622 572.453 133.125 586.712 143.26 599.024C153.395 611.335 165.947 621.439 180.14 628.71C194.333 635.98 209.865 640.265 225.778 641.297C241.692 642.33 257.648 640.089 272.661 634.714C287.675 629.338 301.427 620.942 313.068 610.043C324.709 599.144 333.993 585.975 340.345 571.348C346.697 556.721 349.983 540.947 350 525V145.833Z" stroke="white" stroke-width="40" stroke-linecap="round" stroke-linejoin="round"/>
<path d="M262.5 379.167C286.987 370.552 308.37 354.871 323.945 334.104C339.519 313.338 348.587 288.42 350 262.5" stroke="white" stroke-width="40" stroke-linecap="round" stroke-linejoin="round"/>
<path d="M175.087 149.479C175.664 163.588 179.647 177.348 186.696 189.583" stroke="white" stroke-width="40" stroke-linecap="round" stroke-linejoin="round"/>
<path d="M101.413 317.8C106.748 313.454 112.458 309.589 118.475 306.25" stroke="white" stroke-width="40" stroke-linecap="round" stroke-linejoin="round"/>
<path d="M175 525C154.899 525.009 135.137 519.825 117.629 509.95" stroke="white" stroke-width="40" stroke-linecap="round" stroke-linejoin="round"/>
<path d="M350 379.167H466.667" stroke="white" stroke-width="40" stroke-linecap="round" stroke-linejoin="round"/>
<path d="M350 525H525C540.471 525 555.308 531.146 566.248 542.085C577.188 553.025 583.333 567.862 583.333 583.333V612.5" stroke="white" stroke-width="40" stroke-linecap="round" stroke-linejoin="round"/>
<path d="M350 233.333H583.333" stroke="white" stroke-width="40" stroke-linecap="round" stroke-linejoin="round"/>
<path d="M466.667 233.333V145.833C466.667 130.362 472.813 115.525 483.752 104.585C494.692 93.6458 509.529 87.5 525 87.5" stroke="white" stroke-width="40" stroke-linecap="round" stroke-linejoin="round"/>
<path d="M466.667 393.75C474.721 393.75 481.25 387.221 481.25 379.167C481.25 371.112 474.721 364.583 466.667 364.583C458.612 364.583 452.083 371.112 452.083 379.167C452.083 387.221 458.612 393.75 466.667 393.75Z" stroke="white" stroke-width="40" stroke-linecap="round" stroke-linejoin="round"/>
<path d="M525 102.083C533.054 102.083 539.583 95.5542 539.583 87.5001C539.583 79.4459 533.054 72.9167 525 72.9167C516.946 72.9167 510.417 79.4459 510.417 87.5001C510.417 95.5542 516.946 102.083 525 102.083Z" stroke="white" stroke-width="40" stroke-linecap="round" stroke-linejoin="round"/>
<path d="M583.333 627.083C591.387 627.083 597.917 620.554 597.917 612.5C597.917 604.446 591.387 597.917 583.333 597.917C575.279 597.917 568.75 604.446 568.75 612.5C568.75 620.554 575.279 627.083 583.333 627.083Z" stroke="white" stroke-width="40" stroke-linecap="round" stroke-linejoin="round"/>
<path d="M583.333 247.917C591.387 247.917 597.917 241.387 597.917 233.333C597.917 225.279 591.387 218.75 583.333 218.75C575.279 218.75 568.75 225.279 568.75 233.333C568.75 241.387 575.279 247.917 583.333 247.917Z" stroke="white" stroke-width="40" stroke-linecap="round" stroke-linejoin="round"/>
</svg>
