<svg width="619" height="618" viewBox="0 0 619 618" fill="none" xmlns="http://www.w3.org/2000/svg">
<path d="M309.014 482.434V106.709" stroke="white" stroke-width="40" stroke-linecap="round" stroke-linejoin="round"/>
<path d="M395.72 337.925C370.714 330.615 348.75 315.399 333.118 294.557C317.487 273.716 309.03 248.37 309.014 222.317C308.998 248.37 300.541 273.716 284.91 294.557C269.278 315.399 247.314 330.615 222.308 337.925" stroke="white" stroke-width="40" stroke-linecap="round" stroke-linejoin="round"/>
<path d="M470.807 150.062C477.458 138.545 481.369 125.651 482.24 112.38C483.11 99.1085 480.916 85.8148 475.826 73.5271C470.737 61.2394 462.889 50.2872 452.89 41.5178C442.891 32.7484 431.008 26.3968 418.161 22.9545C405.314 19.5122 391.848 19.0714 378.804 21.6662C365.759 24.261 353.487 29.8218 342.935 37.9185C332.384 46.0152 323.837 56.4307 317.955 68.3593C312.073 80.2878 309.013 93.4096 309.014 106.71C309.015 93.4096 305.956 80.2878 300.074 68.3593C294.192 56.4307 285.644 46.0152 275.093 37.9185C264.541 29.8218 252.269 24.261 239.224 21.6662C226.18 19.0714 212.714 19.5122 199.867 22.9545C187.02 26.3968 175.138 32.7484 165.138 41.5178C155.139 50.2872 147.291 61.2394 142.202 73.5271C137.112 85.8148 134.918 99.1085 135.788 112.38C136.659 125.651 140.571 138.545 147.221 150.062" stroke="white" stroke-width="40" stroke-linecap="round" stroke-linejoin="round"/>
<path d="M482.339 110.323C499.327 114.691 515.099 122.867 528.46 134.233C541.82 145.599 552.419 159.857 559.454 175.925C566.488 191.994 569.774 209.453 569.062 226.98C568.35 244.506 563.66 261.641 555.345 277.087" stroke="white" stroke-width="40" stroke-linecap="round" stroke-linejoin="round"/>
<path d="M482.426 482.435C507.874 482.433 532.611 474.036 552.8 458.543C572.989 443.051 587.502 421.33 594.089 396.749C600.675 372.168 598.967 346.1 589.229 322.589C579.491 299.077 562.268 279.436 540.229 266.711" stroke="white" stroke-width="40" stroke-linecap="round" stroke-linejoin="round"/>
<path d="M539.276 467.492C541.301 483.164 540.092 499.085 535.724 514.271C531.356 529.457 523.92 543.586 513.877 555.787C503.834 567.987 491.396 577.998 477.333 585.203C463.269 592.408 447.877 596.653 432.108 597.676C416.339 598.7 400.528 596.479 385.651 591.153C370.774 585.826 357.146 577.506 345.611 566.706C334.075 555.906 324.876 542.856 318.582 528.362C312.287 513.868 309.031 498.237 309.014 482.435C308.997 498.237 305.741 513.868 299.447 528.362C293.152 542.856 283.953 555.906 272.417 566.706C260.882 577.506 247.255 585.826 232.377 591.153C217.5 596.479 201.689 598.7 185.92 597.676C170.151 596.653 154.76 592.408 140.696 585.203C126.632 577.998 114.194 567.987 104.151 555.787C94.108 543.586 86.6727 529.457 82.3042 514.271C77.9358 499.085 76.727 483.164 78.7525 467.492" stroke="white" stroke-width="40" stroke-linecap="round" stroke-linejoin="round"/>
<path d="M135.603 482.435C110.154 482.433 85.4175 474.036 65.2284 458.543C45.0392 443.051 30.526 421.33 23.9394 396.749C17.3528 372.168 19.061 346.1 28.799 322.589C38.5369 299.077 55.7606 279.436 77.7988 266.711" stroke="white" stroke-width="40" stroke-linecap="round" stroke-linejoin="round"/>
<path d="M135.689 110.323C118.701 114.691 102.929 122.867 89.5685 134.233C76.208 145.599 65.609 159.857 58.5744 175.925C51.5398 191.994 48.254 209.453 48.9658 226.98C49.6777 244.506 54.3685 261.641 62.683 277.087" stroke="white" stroke-width="40" stroke-linecap="round" stroke-linejoin="round"/>
</svg>
